<svg width="158" height="49" viewBox="0 0 158 49" fill="none" xmlns="http://www.w3.org/2000/svg">
<g clip-path="url(#clip0_2022_742)">
<path d="M72.7503 36.3248V37.7511H75.1438V38.8763H72.7503V48.2878H71.4474V38.8763H69.8977V37.7511H71.4474V36.3248C71.4474 33.6252 72.6318 32.959 74.7095 32.959H75.5979V34.1237H74.7095C73.1352 34.1237 72.7503 34.9232 72.7503 36.3248Z" fill="#004E98"/>
<path d="M84.5898 41.5463V44.5913C84.5898 46.9454 82.9711 48.5 80.3258 48.5H79.778C77.1327 48.5 75.4893 46.9454 75.4893 44.5913V41.5463C75.4893 39.1083 77.1327 37.529 79.778 37.529H80.3258C82.9513 37.529 84.5898 39.0836 84.5898 41.5463ZM79.778 38.6986C77.8631 38.6986 76.8119 39.7992 76.8119 41.5463V44.5913C76.8119 46.363 77.9766 47.3353 79.778 47.3353H80.3258C82.2653 47.3353 83.2918 46.2545 83.2918 44.5913V41.5463C83.2918 39.735 82.1765 38.6986 80.3258 38.6986H79.778Z" fill="#004E98"/>
<path d="M94.7218 37.7462V48.2829H93.7396L93.6015 46.7924C93.0981 47.8486 91.958 48.5 90.4084 48.5H89.905C87.6446 48.5 86.2776 47.1823 86.2776 45.1095V37.7462H87.5755V45.0848C87.5755 46.5753 88.4886 47.3304 89.8556 47.3304H90.6305C92.343 47.3304 93.4139 46.1656 93.4139 44.4581V37.7462H94.7119H94.7218Z" fill="#004E98"/>
<path d="M105.762 40.9195V48.2828H104.464V40.9442C104.464 39.4537 103.551 38.6986 102.204 38.6986H101.404C99.6917 38.6986 98.6208 39.8634 98.6208 41.5709V48.2828H97.3179V37.7461H98.3197L98.4579 39.2119C98.9613 38.1755 100.101 37.529 101.626 37.529H102.13C104.39 37.529 105.757 38.8467 105.757 40.9195H105.762Z" fill="#004E98"/>
<path d="M116.254 33.1712V48.2829H115.252L115.114 46.6839C114.591 47.8289 113.495 48.4951 111.946 48.4951H111.442C108.999 48.4951 107.494 46.9405 107.494 44.5864V41.5414C107.494 39.0787 109.044 37.5241 111.487 37.5241H111.941C113.357 37.5241 114.384 38.0867 114.951 39.0343V33.1614H116.249L116.254 33.1712ZM114.956 44.2656V41.7635C114.956 39.819 113.885 38.6987 112.104 38.6987H111.487C109.774 38.6987 108.817 39.7993 108.817 41.5463V44.5914C108.817 46.2989 109.799 47.3353 111.487 47.3353H112.104C113.93 47.3353 114.956 46.1706 114.956 44.2706V44.2656Z" fill="#004E98"/>
<path d="M126.361 40.6629V48.2829H125.379L125.241 46.8813C124.718 47.8979 123.691 48.5 122.389 48.5H121.658C119.309 48.5 117.962 47.207 117.962 45.2822C117.962 43.471 119.171 42.1533 121.11 42.1533H125.059V40.7073C125.059 39.3896 124.146 38.6986 122.798 38.6986H121.93C120.538 38.6986 119.763 39.4784 119.763 40.6629H118.465C118.465 38.7825 119.857 37.5339 121.999 37.5339H122.749C124.96 37.5339 126.352 38.7875 126.352 40.6629H126.361ZM125.059 44.5271V43.318H121.11C119.946 43.318 119.284 44.0928 119.284 45.2822C119.284 46.5753 120.173 47.3353 121.658 47.3353H122.389C123.963 47.3353 125.059 46.2101 125.059 44.5271Z" fill="#004E98"/>
<path d="M133.32 47.3353V48.5H132.363C129.648 48.5 128.962 47.4636 128.962 45.2428V38.8763H127.457V37.7511H128.962V34.4247H130.26V37.7511H132.93V38.8763H130.26V45.2428C130.26 46.9257 131.01 47.3353 132.358 47.3353H133.315H133.32Z" fill="#004E98"/>
<path d="M134.391 33.7338H135.808V35.5697H134.391V33.7338ZM134.46 37.7511H135.763V48.2878H134.46V37.7511Z" fill="#004E98"/>
<path d="M146.779 41.5463V44.5913C146.779 46.9454 145.16 48.5 142.514 48.5H141.967C139.321 48.5 137.678 46.9454 137.678 44.5913V41.5463C137.678 39.1083 139.321 37.529 141.967 37.529H142.514C145.14 37.529 146.779 39.0836 146.779 41.5463ZM141.967 38.6986C140.052 38.6986 139.001 39.7992 139.001 41.5463V44.5913C139.001 46.363 140.165 47.3353 141.967 47.3353H142.514C144.454 47.3353 145.481 46.2545 145.481 44.5913V41.5463C145.481 39.735 144.365 38.6986 142.514 38.6986H141.967Z" fill="#004E98"/>
<path d="M157.182 40.9195V48.2828H155.884V40.9442C155.884 39.4537 154.971 38.6986 153.624 38.6986H152.824C151.112 38.6986 150.041 39.8634 150.041 41.5709V48.2828H148.738V37.7461H149.74L149.878 39.2119C150.381 38.1755 151.521 37.529 153.046 37.529H153.55C155.81 37.529 157.177 38.8467 157.177 40.9195H157.182Z" fill="#004E98"/>
<path d="M0 20.6851H7.32387C7.32387 22.2298 8.47378 22.8615 10.211 22.8615H11.5583C13.6558 22.8615 14.5688 21.8695 14.5688 20.3297C14.5688 18.7899 13.4584 18.3507 11.4793 17.9164C4.43183 16.4901 0.315854 14.9059 0.315854 8.96885C0.315854 3.74244 4.0765 0.5 9.69772 0.5H11.5188C17.8902 0.5 20.7822 3.78686 20.7822 8.69247H13.5373C13.5373 7.22671 12.5898 6.63449 11.124 6.63449H10.0925C8.38988 6.63449 7.63973 7.42412 7.63973 8.61351C7.63973 10.2372 9.02653 10.632 12.2295 11.3032C19.5484 12.769 21.9223 15.1428 21.9223 19.93C21.9223 26.1039 17.8063 28.9911 11.6718 28.9911H10.0086C3.16842 28.996 0 25.6696 0 20.6851Z" fill="#DDCFB1"/>
<path d="M67.2079 10.632V19.0614C67.2079 24.8011 63.0524 28.6012 56.76 28.6012H45.4041V0.894836H56.76C63.0524 0.894836 67.2079 4.73444 67.2079 10.632ZM59.805 11.9399C59.805 9.05276 58.4182 7.42907 56.3603 7.42907H52.5996V22.0719H56.3603C58.5367 22.0719 59.805 20.4087 59.805 17.9164V11.9399Z" fill="#DDCFB1"/>
<path d="M69.9026 0.894836H77.1031V28.6012H69.9026V0.894836Z" fill="#DDCFB1"/>
<path d="M102.83 0.894836V28.6012H96.1037L90.6009 18.4692C89.4905 16.4112 88.4245 14.3927 87.393 12.3742V28.6012H80.7058V0.894836H87.6694L93.0883 11.1453L96.0988 17.0034V0.894836H102.825H102.83Z" fill="#DDCFB1"/>
<path d="M106.157 19.4562V0.894836H113.402V18.7061C113.402 21.0799 114.907 22.4272 117.123 22.4272H117.36C119.694 22.4272 121.041 20.9615 121.041 18.7061V0.894836H128.286V19.4562C128.286 25.1959 123.933 28.996 117.483 28.996H116.97C110.519 28.996 106.167 25.1959 106.167 19.4562H106.157Z" fill="#DDCFB1"/>
<path d="M42.8624 0.894836H24.1826V7.10828H42.8624V0.894836Z" fill="#004E98"/>
<path d="M42.8624 11.4365H24.1826V17.6499H42.8624V11.4365Z" fill="#004E98"/>
<path d="M42.8624 22.3877H24.1826V28.6011H42.8624V22.3877Z" fill="#004E98"/>
<path d="M151.25 28.6012V12.5469C148.98 15.5623 146.705 18.1286 146.705 21.3859H142.085C142.085 18.1286 139.815 15.5623 137.54 12.5469V28.6012H131.608V0.894836H137.54C137.54 5.21316 141.661 8.95899 144.395 13.6869C147.129 8.95899 151.25 5.21316 151.25 0.894836H157.182V28.6012H151.25Z" fill="#DDCFB1"/>
</g>
<defs>
<clipPath id="clip0_2022_742">
<rect width="157.182" height="48" fill="white" transform="translate(0 0.5)"/>
</clipPath>
</defs>
</svg>
